# This file uses centimeters as units for non-parametric coordinates.

g default
v -0.066574 0.069321 0.011298
v 0.066574 0.069321 0.011298
v 0.066574 0.069321 -0.011298
v -0.066574 0.069321 -0.011298
v -0.051620 0.084274 0.011298
v 0.051620 0.084274 0.011298
v 0.051620 0.084274 -0.011298
v -0.051620 0.084274 -0.011298
v 0.060608 0.069321 0.007435
v -0.060623 0.069321 0.007435
v 0.060608 0.069321 -0.007435
v -0.060623 0.069321 -0.007435
v -0.056244 0.165840 0.011298
v -0.066574 0.155518 0.011298
v -0.066574 0.155518 -0.011298
v -0.056244 0.165840 -0.011298
v 0.066574 0.155518 0.011298
v 0.056244 0.165840 0.011298
v 0.056244 0.165840 -0.011298
v 0.066574 0.155518 -0.011298
v 0.051620 0.140564 0.011298
v 0.041290 0.150888 0.011298
v -0.041306 0.150888 0.011298
v -0.051620 0.140564 0.011298
v -0.051620 0.140564 -0.011298
v -0.041306 0.150888 -0.011298
v 0.041290 0.150888 -0.011298
v 0.051620 0.140564 -0.011298
v 0.060608 0.046997 0.007435
v -0.060623 0.046997 0.007435
v -0.060623 0.046997 -0.007435
v 0.060608 0.046997 -0.007435
v -0.068085 0.000000 0.014911
v 0.068085 0.000000 0.014911
v 0.068085 0.046997 0.014911
v -0.068085 0.046997 0.014911
v 0.068085 0.000000 -0.014911
v 0.068085 0.046997 -0.014911
v -0.068085 0.046997 -0.014911
v -0.068085 0.000000 -0.014911
vt 0.250873 0.220260
vt 0.250864 0.181449
vt 0.264260 0.181453
vt 0.264262 0.220259
vt 0.242366 0.181462
vt 0.242331 0.168074
vt 0.250829 0.168052
vt 0.228983 0.220266
vt 0.228973 0.181460
vt 0.242375 0.220264
vt 0.250882 0.233652
vt 0.242384 0.233657
vt 0.318253 0.219640
vt 0.318252 0.181700
vt 0.322513 0.185957
vt 0.322513 0.215377
vt 0.311811 0.181697
vt 0.311816 0.219638
vt 0.307558 0.215378
vt 0.307549 0.185958
vt 0.356416 0.240422
vt 0.349976 0.240424
vt 0.349943 0.211002
vt 0.356381 0.211004
vt 0.317152 0.217940
vt 0.317152 0.183394
vt 0.312914 0.183394
vt 0.312915 0.217940
vt 0.345756 0.216696
vt 0.342814 0.219635
vt 0.338554 0.215377
vt 0.341496 0.212435
vt 0.277874 0.219644
vt 0.277874 0.216702
vt 0.284313 0.216701
vt 0.284313 0.219643
vt 0.287256 0.219643
vt 0.288573 0.212440
vt 0.291515 0.215381
vt 0.342814 0.181694
vt 0.345756 0.184639
vt 0.341496 0.188899
vt 0.338554 0.185957
vt 0.277869 0.184645
vt 0.277869 0.181704
vt 0.284308 0.181703
vt 0.284307 0.184645
vt 0.287248 0.181702
vt 0.291509 0.185962
vt 0.288568 0.188904
vt 0.356411 0.165542
vt 0.356411 0.168483
vt 0.349972 0.168483
vt 0.349972 0.165542
vt 0.356411 0.192020
vt 0.356411 0.194965
vt 0.349972 0.194959
vt 0.349972 0.192020
vt 0.318249 0.175264
vt 0.342811 0.175252
vt 0.318255 0.226081
vt 0.342817 0.226071
vt 0.356406 0.256559
vt 0.349958 0.256560
vt 0.368300 0.205785
vt 0.368531 0.240338
vt 0.362170 0.240354
vt 0.361938 0.205816
vt 0.368286 0.201557
vt 0.361925 0.201568
vt 0.361925 0.167017
vt 0.368286 0.167017
vt 0.368524 0.244589
vt 0.362162 0.244578
vt 0.266392 0.183583
vt 0.266392 0.218129
vt 0.270629 0.183583
vt 0.272759 0.181453
vt 0.270629 0.218129
vt 0.272759 0.220259
vn 0.000000 0.000000 1.000000
vn 0.000000 0.000000 1.000000
vn 0.000000 0.000000 1.000000
vn 0.000000 0.000000 1.000000
vn 1.000000 0.000000 0.000000
vn 1.000000 0.000000 0.000000
vn 1.000000 0.000000 0.000000
vn 1.000000 0.000000 0.000000
vn 0.000000 0.000000 -1.000000
vn 0.000000 0.000000 -1.000000
vn 0.000000 0.000000 -1.000000
vn 0.000000 0.000000 -1.000000
vn -1.000000 0.000000 0.000000
vn -1.000000 0.000000 0.000000
vn -1.000000 0.000000 0.000000
vn -1.000000 0.000000 0.000000
vn 0.000000 0.000000 1.000000
vn 0.000000 0.000000 1.000000
vn 0.000000 0.000000 1.000000
vn 0.000000 0.000000 1.000000
vn 0.000000 0.000000 -1.000000
vn 0.000000 0.000000 -1.000000
vn 0.000000 0.000000 -1.000000
vn 0.000000 0.000000 -1.000000
vn 0.000000 1.000000 0.000000
vn 0.000000 1.000000 0.000000
vn 0.000000 1.000000 0.000000
vn 0.000000 1.000000 0.000000
vn 0.000000 -1.000000 -0.000027
vn 0.000000 -1.000000 -0.000027
vn 0.000000 -1.000000 -0.000027
vn 0.000000 -1.000000 -0.000027
vn 0.000000 -1.000000 0.000000
vn 0.000000 -1.000000 0.000000
vn 0.000000 -1.000000 0.000000
vn 0.000000 -1.000000 0.000000
vn 0.000000 -1.000000 0.000027
vn 0.000000 -1.000000 0.000027
vn 0.000000 -1.000000 0.000027
vn 0.000000 -1.000000 0.000027
vn 0.000000 -1.000000 0.000000
vn 0.000000 -1.000000 0.000000
vn 0.000000 -1.000000 0.000000
vn 0.000000 -1.000000 0.000000
vn 0.000000 0.000000 1.000000
vn 0.000000 0.000000 1.000000
vn 0.000000 0.000000 1.000000
vn 0.000000 0.000000 1.000000
vn -0.707102 0.707111 0.000000
vn -0.707102 0.707111 0.000000
vn -0.707102 0.707111 0.000000
vn -0.707102 0.707111 0.000000
vn -0.000001 0.000000 -1.000000
vn 0.000000 0.000000 -1.000000
vn 0.000000 0.000000 -1.000000
vn -0.000001 0.000000 -1.000000
vn 0.000000 0.000000 1.000000
vn 0.000000 0.000000 1.000000
vn 0.000000 0.000000 1.000000
vn 0.000000 0.000000 1.000000
vn 0.707102 0.707111 0.000000
vn 0.707102 0.707111 0.000000
vn 0.707102 0.707111 0.000000
vn 0.707102 0.707111 0.000000
vn 0.000000 0.000000 -1.000000
vn 0.000001 0.000000 -1.000000
vn 0.000001 0.000000 -1.000000
vn 0.000000 0.000000 -1.000000
vn -0.707135 -0.707079 0.000000
vn -0.707135 -0.707079 0.000000
vn -0.707135 -0.707079 0.000000
vn -0.707135 -0.707079 0.000000
vn 0.707135 -0.707079 0.000000
vn 0.707135 -0.707079 0.000000
vn 0.707135 -0.707079 0.000000
vn 0.707135 -0.707079 0.000000
vn 0.000000 1.000000 0.000000
vn 0.000000 1.000000 0.000000
vn 0.000000 1.000000 0.000000
vn 0.000000 1.000000 0.000000
vn 1.000000 0.000000 0.000000
vn 1.000000 0.000000 0.000000
vn 1.000000 0.000000 0.000000
vn 1.000000 0.000000 0.000000
vn -1.000000 0.000000 0.000000
vn -1.000000 0.000000 0.000000
vn -1.000000 0.000000 0.000000
vn -1.000000 0.000000 0.000000
vn 0.000000 0.000000 1.000000
vn 0.000000 0.000000 1.000000
vn 0.000000 0.000000 1.000000
vn 0.000000 0.000000 1.000000
vn 0.000000 0.000000 1.000000
vn 0.000000 0.000000 1.000000
vn 0.000000 0.000000 1.000000
vn 0.000000 0.000000 1.000000
vn 0.000000 0.000000 1.000000
vn 0.000000 0.000000 1.000000
vn 0.000000 0.000000 1.000000
vn 0.000000 0.000000 1.000000
vn 0.000000 0.000000 -1.000000
vn 0.000000 0.000000 -1.000000
vn 0.000000 0.000000 -1.000000
vn 0.000000 0.000000 -1.000000
vn 0.000001 0.000000 -1.000000
vn 0.000000 0.000000 -1.000000
vn 0.000000 0.000000 -1.000000
vn 0.000001 0.000000 -1.000000
vn 0.000000 0.000000 -1.000000
vn -0.000001 0.000000 -1.000000
vn -0.000001 0.000000 -1.000000
vn 0.000000 0.000000 -1.000000
vn 1.000000 0.000000 0.000000
vn 1.000000 0.000000 0.000000
vn 1.000000 0.000000 0.000000
vn 1.000000 0.000000 0.000000
vn -1.000000 0.000000 0.000000
vn -1.000000 0.000000 0.000000
vn -1.000000 0.000000 0.000000
vn -1.000000 0.000000 0.000000
vn 0.000000 -1.000000 0.000000
vn 0.000000 -1.000000 0.000000
vn 0.000000 -1.000000 0.000000
vn 0.000000 -1.000000 0.000000
vn 0.000000 0.000000 1.000000
vn 0.000000 0.000000 1.000000
vn 0.000000 0.000000 1.000000
vn 0.000000 0.000000 1.000000
vn -1.000000 0.000000 0.000000
vn -1.000000 0.000000 0.000000
vn -1.000000 0.000000 0.000000
vn -1.000000 0.000000 0.000000
vn 0.000000 0.000000 -1.000000
vn 0.000000 0.000000 -1.000000
vn 0.000000 0.000000 -1.000000
vn 0.000000 0.000000 -1.000000
vn 1.000000 0.000000 0.000000
vn 1.000000 0.000000 0.000000
vn 1.000000 0.000000 0.000000
vn 1.000000 0.000000 0.000000
vn 0.000000 1.000000 0.000001
vn 0.000000 1.000000 0.000001
vn 0.000000 1.000000 0.000001
vn 0.000000 1.000000 0.000001
vn 0.000000 1.000000 -0.000008
vn 0.000000 1.000000 0.000001
vn 0.000000 1.000000 0.000001
vn 0.000000 1.000000 -0.000008
vn 0.000000 1.000000 -0.000008
vn 0.000000 1.000000 -0.000008
vn 0.000000 1.000000 -0.000008
vn 0.000000 1.000000 -0.000008
vn 0.000000 -1.000000 0.000000
vn 0.000000 -1.000000 0.000000
vn 0.000000 -1.000000 0.000000
vn 0.000000 -1.000000 0.000000
vn 0.000000 1.000000 0.000001
vn 0.000000 1.000000 -0.000008
vn 0.000000 1.000000 -0.000008
vn 0.000000 1.000000 0.000001
s off
g SciFi_PropsPack4_Arm_BS
f 33/1/1 34/2/2 35/3/3 36/4/4
f 34/2/5 37/5/6 38/6/7 35/7/8
f 39/8/9 38/9/10 37/5/11 40/10/12
f 40/10/13 33/1/14 36/11/15 39/12/16
f 1/13/17 2/14/18 6/15/19 5/16/20
f 3/17/21 4/18/22 8/19/23 7/20/24
f 6/21/25 7/22/26 8/23/27 5/24/28
f 2/14/29 1/13/30 10/25/31 9/26/32
f 3/17/33 2/14/34 9/26/35 11/27/36
f 4/18/37 3/17/38 11/27/39 12/28/40
f 1/13/41 4/18/42 12/28/43 10/25/44
f 13/29/45 14/30/46 24/31/47 23/32/48
f 14/33/49 13/34/50 16/35/51 15/36/52
f 15/37/53 16/35/54 26/38/55 25/39/56
f 17/40/57 18/41/58 22/42/59 21/43/60
f 18/44/61 17/45/62 20/46/63 19/47/64
f 19/47/65 20/48/66 28/49/67 27/50/68
f 21/51/69 22/52/70 27/53/71 28/54/72
f 23/55/73 24/56/74 25/57/75 26/58/76
f 13/34/77 18/44/78 19/47/79 16/35/80
f 2/14/81 3/59/82 20/60/83 17/40/84
f 4/61/85 1/13/86 14/30/87 15/62/88
f 2/14/89 17/40/90 21/43/91 6/15/92
f 18/41/93 13/29/94 23/32/95 22/42/96
f 14/30/97 1/13/98 5/16/99 24/31/100
f 16/35/101 19/47/102 27/50/103 26/38/104
f 20/48/105 3/17/106 7/20/107 28/49/108
f 4/18/109 15/37/110 25/39/111 8/19/112
f 24/56/113 5/24/114 8/23/115 25/57/116
f 6/21/117 21/63/118 28/64/119 7/22/120
f 22/52/121 23/55/122 26/58/123 27/53/124
f 30/65/125 29/66/126 9/67/127 10/68/128
f 31/69/129 30/65/130 10/68/131 12/70/132
f 12/70/133 11/71/134 32/72/135 31/69/136
f 29/66/137 32/73/138 11/74/139 9/67/140
f 29/75/141 30/76/142 36/4/143 35/3/144
f 32/77/145 29/75/146 35/3/147 38/78/148
f 31/79/149 32/77/150 38/78/151 39/80/152
f 34/2/153 33/1/154 40/10/155 37/5/156
f 30/76/157 31/79/158 39/80/159 36/4/160
