# This file uses centimeters as units for non-parametric coordinates.

g default
v -0.205765 0.047748 0.333061
v -0.165534 0.047748 0.333061
v -0.205765 0.156310 0.333061
v -0.165534 0.156310 0.333061
v -0.205765 0.156310 -0.333061
v -0.165534 0.156310 -0.333061
v -0.205765 0.047748 -0.333061
v -0.165534 0.047748 -0.333061
v 0.148840 0.047748 0.333061
v 0.189071 0.047748 0.333061
v 0.148840 0.156310 0.333061
v 0.189071 0.156310 0.333061
v 0.148840 0.156310 -0.333061
v 0.189071 0.156310 -0.333061
v 0.148840 0.047748 -0.333061
v 0.189071 0.047748 -0.333061
v 0.532170 0.047748 0.015621
v 0.532170 0.047748 -0.024612
v 0.532170 0.148668 0.015621
v 0.532170 0.148668 -0.024612
v -0.532549 0.148668 0.015621
v -0.532549 0.148668 -0.024612
v -0.532549 0.047748 0.015621
v -0.532549 0.047748 -0.024612
v -0.572584 0.000000 0.258972
v -0.458080 0.000000 0.373474
v -0.572584 0.161077 0.258972
v -0.458080 0.161077 0.373474
v 0.572587 0.000000 0.258972
v 0.458082 0.000000 0.373474
v 0.572587 0.161077 0.258972
v 0.458082 0.161077 0.373474
v -0.572584 0.161077 -0.258972
v -0.458080 0.161077 -0.373478
v -0.572584 0.000000 -0.258972
v -0.458080 0.000000 -0.373478
v 0.458082 0.161077 -0.373478
v 0.572587 0.161077 -0.258972
v 0.572587 0.000000 -0.258972
v 0.458082 0.000000 -0.373478
v -0.441339 0.161077 0.333061
v -0.532167 0.161077 0.242229
v 0.441338 0.161077 0.333061
v 0.532170 0.161077 0.242229
v 0.532170 0.161077 -0.242229
v 0.441338 0.161077 -0.333061
v -0.441339 0.161077 -0.333061
v -0.532167 0.161077 -0.242229
v -0.441339 0.047748 0.333061
v -0.532167 0.047748 0.242229
v 0.441338 0.047748 0.333061
v 0.532170 0.047748 0.242229
v 0.532170 0.047748 -0.242229
v 0.441338 0.047748 -0.333061
v -0.441339 0.047748 -0.333061
v -0.532167 0.047748 -0.242229
v -0.572584 0.142856 0.258972
v -0.458080 0.142856 0.373474
v 0.458082 0.142856 0.373474
v 0.572587 0.142856 0.258972
v 0.572587 0.142856 -0.258972
v 0.458082 0.142856 -0.373478
v -0.458080 0.142856 -0.373478
v -0.572584 0.142856 -0.258972
v -0.572584 0.049393 0.258972
v -0.458080 0.049393 0.373474
v 0.458082 0.049393 0.373474
v 0.572587 0.049393 0.258972
v 0.572587 0.049393 -0.258972
v 0.458082 0.049393 -0.373478
v -0.458080 0.049393 -0.373478
v -0.572584 0.049393 -0.258972
v -0.555525 0.049393 0.251907
v -0.451015 0.049393 0.356422
v -0.451012 0.142856 0.356422
v -0.555525 0.142856 0.251904
v 0.451013 0.142856 0.356422
v 0.451013 0.049393 0.356422
v 0.555528 0.049393 0.251907
v 0.555528 0.142856 0.251907
v 0.555528 0.142856 -0.251907
v 0.555528 0.049393 -0.251907
v 0.451013 0.142856 -0.356419
v 0.451013 0.049393 -0.356419
v -0.451012 0.049393 -0.356419
v -0.451012 0.142856 -0.356419
v -0.555525 0.142856 -0.251907
v -0.555525 0.049393 -0.251907
vt 0.833518 0.500658
vt 0.837776 0.500658
vt 0.837776 0.571165
vt 0.833518 0.571165
vt 0.849267 0.500658
vt 0.849267 0.571164
vt 0.822027 0.571165
vt 0.822027 0.500658
vt 0.804828 0.571689
vt 0.800570 0.571689
vt 0.800570 0.501182
vt 0.804828 0.501182
vt 0.789079 0.571689
vt 0.789079 0.501182
vt 0.816319 0.501182
vt 0.816319 0.571689
vt 0.745079 0.192470
vt 0.749338 0.192470
vt 0.749338 0.305167
vt 0.745079 0.305167
vt 0.760020 0.192470
vt 0.760020 0.305167
vt 0.734397 0.305167
vt 0.734397 0.192470
vt 0.858293 0.583624
vt 0.856356 0.583624
vt 0.856357 0.486260
vt 0.858293 0.486260
vt 0.780023 0.486260
vt 0.780023 0.583624
vt 0.778086 0.583624
vt 0.778086 0.486260
vt 0.844367 0.472519
vt 0.844368 0.474355
vt 0.792011 0.474355
vt 0.792012 0.472519
vt 0.792012 0.597365
vt 0.792011 0.595529
vt 0.844368 0.595529
vt 0.844367 0.597365
vt 0.908150 0.122174
vt 0.977888 0.122178
vt 0.968394 0.131686
vt 0.917657 0.131687
vt 0.857177 0.231552
vt 0.779311 0.231553
vt 0.791249 0.219618
vt 0.845237 0.219618
vt 0.860508 0.595526
vt 0.860510 0.597343
vt 0.860509 0.474358
vt 0.860510 0.472541
vt 0.775869 0.597343
vt 0.775870 0.595526
vt 0.775869 0.472541
vt 0.775870 0.474358
vt 0.814398 0.131434
vt 0.802278 0.119314
vt 0.806556 0.117542
vt 0.816170 0.127156
vt 0.802278 0.022341
vt 0.806556 0.024113
vt 0.814398 0.010221
vt 0.816170 0.014499
vt 0.869221 0.010221
vt 0.867449 0.014499
vt 0.881341 0.022341
vt 0.877063 0.024113
vt 0.881341 0.119314
vt 0.877063 0.117542
vt 0.869221 0.131434
vt 0.867449 0.127156
vt 0.917744 0.143510
vt 0.904540 0.143829
vt 0.904193 0.132084
vt 0.896300 0.122165
vt 0.896300 0.029965
vt 0.908149 0.029954
vt 0.904540 0.008301
vt 0.917744 0.008620
vt 0.917658 0.020443
vt 0.904193 0.020046
vt 0.968301 0.008619
vt 0.968391 0.020447
vt 0.981506 0.008301
vt 0.981853 0.020046
vt 0.989747 0.029967
vt 0.989751 0.122163
vt 0.977895 0.029950
vt 0.981506 0.143829
vt 0.968301 0.143510
vt 0.981854 0.132083
vt 0.891044 0.459037
vt 0.891044 0.470099
vt 0.881151 0.470099
vt 0.881151 0.459037
vt 0.906418 0.374459
vt 0.906418 0.469936
vt 0.896526 0.469936
vt 0.896525 0.374459
vt 0.896525 0.363397
vt 0.906418 0.363397
vt 0.906418 0.310070
vt 0.896525 0.310070
vt 0.906418 0.299007
vt 0.896525 0.299007
vt 0.891044 0.299171
vt 0.891044 0.394648
vt 0.881151 0.394648
vt 0.881151 0.299171
vt 0.881151 0.405710
vt 0.891044 0.405710
vt 0.845238 0.339011
vt 0.862127 0.339012
vt 0.862122 0.344161
vt 0.845239 0.344160
vt 0.862326 0.231552
vt 0.862325 0.327077
vt 0.857176 0.327076
vt 0.862127 0.219617
vt 0.845237 0.214469
vt 0.862122 0.214468
vt 0.791250 0.214469
vt 0.774365 0.214467
vt 0.774360 0.219618
vt 0.779312 0.327076
vt 0.774161 0.327077
vt 0.774160 0.231552
vt 0.791249 0.344159
vt 0.774366 0.344161
vt 0.774359 0.339011
vt 0.791248 0.339011
vt 0.857175 0.356096
vt 0.855396 0.356833
vt 0.844502 0.345938
vt 0.843649 0.593791
vt 0.854548 0.582875
vt 0.854549 0.487009
vt 0.857173 0.451596
vt 0.855395 0.450859
vt 0.845237 0.463532
vt 0.844501 0.461753
vt 0.843649 0.476093
vt 0.792730 0.476093
vt 0.791247 0.463531
vt 0.791984 0.461753
vt 0.781831 0.487010
vt 0.779311 0.451595
vt 0.781089 0.450858
vt 0.779312 0.356095
vt 0.781090 0.356832
vt 0.781831 0.582875
vt 0.792730 0.593791
vt 0.791985 0.345938
vn 0.000000 1.000000 0.000000
vn 0.000000 1.000000 0.000000
vn 0.000000 1.000000 0.000000
vn 0.000000 1.000000 0.000000
vn 1.000000 0.000000 0.000000
vn 1.000000 0.000000 0.000000
vn 1.000000 0.000000 0.000000
vn 1.000000 0.000000 0.000000
vn -1.000000 0.000000 0.000000
vn -1.000000 0.000000 0.000000
vn -1.000000 0.000000 0.000000
vn -1.000000 0.000000 0.000000
vn 0.000000 1.000000 0.000000
vn 0.000000 1.000000 0.000000
vn 0.000000 1.000000 0.000000
vn 0.000000 1.000000 0.000000
vn 1.000000 0.000000 0.000000
vn 1.000000 0.000000 0.000000
vn 1.000000 0.000000 0.000000
vn 1.000000 0.000000 0.000000
vn -1.000000 0.000000 0.000000
vn -1.000000 0.000000 0.000000
vn -1.000000 0.000000 0.000000
vn -1.000000 0.000000 0.000000
vn 0.000000 1.000000 0.000000
vn 0.000000 1.000000 0.000000
vn 0.000000 1.000000 0.000000
vn 0.000000 1.000000 0.000000
vn 0.000000 0.000000 -1.000000
vn 0.000000 0.000000 -1.000000
vn 0.000000 0.000000 -1.000000
vn 0.000000 0.000000 -1.000000
vn 0.000000 0.000000 1.000000
vn 0.000000 0.000000 1.000000
vn 0.000000 0.000000 1.000000
vn 0.000000 0.000000 1.000000
vn 0.000000 0.000000 1.000000
vn 0.000000 0.000000 1.000000
vn 0.000000 0.000000 1.000000
vn 0.000000 0.000000 1.000000
vn 0.000000 0.000000 -1.000000
vn 0.000000 0.000000 -1.000000
vn 0.000000 0.000000 -1.000000
vn 0.000000 0.000000 -1.000000
vn 1.000000 0.000000 0.000000
vn 1.000000 0.000000 0.000000
vn 1.000000 0.000000 0.000000
vn 1.000000 0.000000 0.000000
vn -1.000000 0.000000 0.000000
vn -1.000000 0.000000 0.000000
vn -1.000000 0.000000 0.000000
vn -1.000000 0.000000 0.000000
vn 0.000000 1.000000 0.000000
vn 0.000000 1.000000 0.000000
vn 0.000000 1.000000 0.000000
vn 0.000000 1.000000 0.000000
vn 0.000000 -1.000000 0.000000
vn 0.000000 -1.000000 0.000000
vn 0.000000 -1.000000 0.000000
vn 0.000000 -1.000000 0.000000
vn -0.707108 0.000000 0.707105
vn -0.707108 0.000000 0.707105
vn -0.707108 0.000000 0.707105
vn -0.707108 0.000000 0.707105
vn 0.707108 0.000000 0.707105
vn 0.707108 0.000000 0.707105
vn 0.707108 0.000000 0.707105
vn 0.707108 0.000000 0.707105
vn -0.707108 0.000000 -0.707105
vn -0.707108 0.000000 -0.707105
vn -0.707108 0.000000 -0.707105
vn -0.707108 0.000000 -0.707105
vn 0.707108 0.000000 -0.707105
vn 0.707108 0.000000 -0.707105
vn 0.707108 0.000000 -0.707105
vn 0.707108 0.000000 -0.707105
vn 0.000000 1.000000 0.000000
vn 0.000000 1.000000 0.000000
vn 0.000000 1.000000 0.000000
vn 0.000000 1.000000 0.000000
vn 0.000000 1.000000 0.000000
vn 0.000000 1.000000 0.000000
vn 0.000000 1.000000 0.000000
vn 0.000000 1.000000 0.000000
vn 0.000000 1.000000 0.000000
vn 0.000000 1.000000 0.000000
vn 0.000000 1.000000 0.000000
vn 0.000000 1.000000 0.000000
vn 0.000000 1.000000 0.000000
vn 0.000000 1.000000 0.000000
vn 0.000000 1.000000 0.000000
vn 0.000000 1.000000 0.000000
vn 0.000000 1.000000 0.000000
vn 0.000000 1.000000 0.000000
vn 0.000000 1.000000 0.000000
vn 0.000000 1.000000 0.000000
vn 0.000000 1.000000 0.000000
vn 0.000000 1.000000 0.000000
vn 0.000000 1.000000 0.000000
vn 0.000000 1.000000 0.000000
vn 0.000000 1.000000 0.000000
vn 0.000000 1.000000 0.000000
vn 0.000000 1.000000 0.000000
vn 0.000000 1.000000 0.000000
vn 0.000000 1.000000 0.000000
vn 0.000000 1.000000 0.000000
vn 0.000000 1.000000 0.000000
vn 0.000000 1.000000 0.000000
vn 0.707110 0.000000 -0.707104
vn 0.707110 0.000000 -0.707104
vn 0.707110 0.000000 -0.707104
vn 0.707110 0.000000 -0.707104
vn 0.000000 0.000000 -1.000000
vn 0.000000 0.000000 -1.000000
vn 0.000000 0.000000 -1.000000
vn 0.000000 0.000000 -1.000000
vn -0.707109 0.000000 -0.707105
vn -0.707109 0.000000 -0.707105
vn -0.707109 0.000000 -0.707105
vn -0.707109 0.000000 -0.707105
vn -1.000000 0.000000 0.000000
vn -1.000000 0.000000 0.000000
vn -1.000000 0.000000 0.000000
vn -1.000000 0.000000 0.000000
vn -0.707112 0.000000 0.707101
vn -0.707112 0.000000 0.707101
vn -0.707112 0.000000 0.707101
vn -0.707112 0.000000 0.707101
vn 0.000000 0.000000 1.000000
vn 0.000000 0.000000 1.000000
vn 0.000000 0.000000 1.000000
vn 0.000000 0.000000 1.000000
vn 0.707114 0.000000 0.707100
vn 0.707114 0.000000 0.707100
vn 0.707114 0.000000 0.707100
vn 0.707114 0.000000 0.707100
vn 1.000000 0.000000 0.000000
vn 1.000000 0.000000 0.000000
vn 1.000000 0.000000 0.000000
vn 1.000000 0.000000 0.000000
vn 0.000000 1.000000 0.000000
vn 0.000000 1.000000 0.000000
vn 0.000000 1.000000 0.000000
vn 0.000000 1.000000 0.000000
vn 0.000000 1.000000 0.000000
vn 0.000000 1.000000 0.000000
vn 0.000000 1.000000 0.000000
vn 0.000000 1.000000 0.000000
vn -0.707114 0.000007 0.707099
vn -0.707114 0.000007 0.707099
vn -0.707114 0.000007 0.707099
vn -0.707114 0.000007 0.707099
vn 0.000000 0.000000 1.000000
vn 0.000000 0.000000 1.000000
vn 0.000000 0.000000 1.000000
vn 0.000000 0.000000 1.000000
vn 0.707108 0.000001 0.707105
vn 0.707108 0.000001 0.707105
vn 0.707108 0.000001 0.707105
vn 0.707108 0.000001 0.707105
vn 1.000000 0.000000 0.000000
vn 1.000000 0.000000 0.000000
vn 1.000000 0.000000 0.000000
vn 1.000000 0.000000 0.000000
vn 0.707105 0.000000 -0.707109
vn 0.707105 0.000000 -0.707109
vn 0.707105 0.000000 -0.707109
vn 0.707105 0.000000 -0.707109
vn 0.000000 0.000000 -1.000000
vn 0.000000 0.000000 -1.000000
vn 0.000000 0.000000 -1.000000
vn 0.000000 0.000000 -1.000000
vn -0.707105 0.000000 -0.707109
vn -0.707105 0.000000 -0.707109
vn -0.707105 0.000000 -0.707109
vn -0.707105 0.000000 -0.707109
vn -1.000000 0.000000 0.000000
vn -1.000000 0.000000 0.000000
vn -1.000000 0.000000 0.000000
vn -1.000000 0.000000 0.000000
vn -0.707107 0.000000 0.707106
vn -0.707107 0.000000 0.707106
vn -0.707107 0.000000 0.707106
vn -0.707107 0.000000 0.707106
vn 0.000000 0.000000 1.000000
vn 0.000000 0.000000 1.000000
vn 0.000000 0.000000 1.000000
vn 0.000000 0.000000 1.000000
vn 0.707107 0.000000 0.707106
vn 0.707107 0.000000 0.707106
vn 0.707107 0.000000 0.707106
vn 0.707107 0.000000 0.707106
vn 1.000000 0.000000 0.000000
vn 1.000000 0.000000 0.000000
vn 1.000000 0.000000 0.000000
vn 1.000000 0.000000 0.000000
vn 0.707107 0.000000 -0.707106
vn 0.707107 0.000000 -0.707106
vn 0.707107 0.000000 -0.707106
vn 0.707107 0.000000 -0.707106
vn 0.000000 0.000000 -1.000000
vn 0.000000 0.000000 -1.000000
vn 0.000000 0.000000 -1.000000
vn 0.000000 0.000000 -1.000000
vn -0.707107 0.000000 -0.707106
vn -0.707107 0.000000 -0.707106
vn -0.707107 0.000000 -0.707106
vn -0.707107 0.000000 -0.707106
vn -1.000000 0.000000 0.000000
vn -1.000000 0.000000 0.000000
vn -1.000000 0.000000 0.000000
vn -1.000000 0.000000 0.000000
vn 0.000000 1.000000 0.000000
vn 0.000000 1.000000 0.000000
vn 0.000000 1.000000 0.000000
vn 0.000000 1.000000 0.000000
vn 0.000000 -1.000000 0.000000
vn 0.000000 -1.000000 0.000000
vn 0.000000 -1.000000 0.000000
vn 0.000000 -1.000000 0.000000
vn 0.000000 -1.000000 0.000000
vn 0.000000 -1.000000 0.000000
vn 0.000000 -1.000000 0.000000
vn 0.000000 -1.000000 0.000000
vn 0.000000 1.000000 0.000000
vn 0.000000 1.000000 0.000000
vn 0.000000 1.000000 0.000000
vn 0.000000 1.000000 0.000000
vn 0.000000 1.000000 0.000000
vn 0.000000 1.000000 0.000000
vn 0.000000 1.000000 0.000000
vn 0.000000 1.000000 0.000000
vn 0.000000 -1.000000 0.000000
vn 0.000000 -1.000000 0.000000
vn 0.000000 -1.000000 0.000000
vn 0.000000 -1.000000 0.000000
vn 0.000000 -1.000000 0.000000
vn 0.000000 -1.000000 0.000000
vn 0.000000 -1.000000 0.000000
vn 0.000000 -1.000000 0.000000
vn 0.000000 1.000000 0.000000
vn 0.000000 1.000000 0.000000
vn 0.000000 1.000000 0.000000
vn 0.000000 1.000000 0.000000
vn 0.000000 -1.000000 -0.000001
vn 0.000000 -1.000000 0.000000
vn 0.000000 -1.000000 0.000000
vn 0.000000 -1.000000 -0.000001
vn 0.000000 1.000000 0.000000
vn 0.000000 1.000000 0.000000
vn 0.000000 1.000000 0.000000
vn 0.000000 1.000000 0.000000
vn 0.000000 1.000000 0.000000
vn 0.000000 1.000000 0.000000
vn 0.000000 1.000000 0.000000
vn 0.000000 1.000000 0.000000
vn 0.000000 -1.000000 -0.000001
vn 0.000000 -1.000000 -0.000001
vn 0.000000 -1.000000 -0.000001
vn 0.000000 -1.000000 -0.000001
vn 0.000000 -1.000000 0.000000
vn 0.000000 -1.000000 -0.000001
vn 0.000000 -1.000000 -0.000001
vn 0.000000 -1.000000 0.000000
vn 0.000000 1.000000 0.000000
vn 0.000000 1.000000 0.000000
vn 0.000000 1.000000 0.000000
vn 0.000000 1.000000 0.000000
vn 0.000000 -1.000000 0.000000
vn 0.000000 -1.000000 0.000000
vn 0.000000 -1.000000 0.000000
vn 0.000000 -1.000000 0.000000
vn 0.000000 1.000000 0.000000
vn 0.000000 1.000000 0.000000
vn 0.000000 1.000000 0.000000
vn 0.000000 1.000000 0.000000
vn 0.000000 -1.000000 0.000000
vn 0.000000 -1.000000 0.000000
vn 0.000000 -1.000000 0.000000
vn 0.000000 -1.000000 0.000000
vn 0.000000 -1.000000 0.000000
vn 0.000000 -1.000000 0.000000
vn 0.000000 -1.000000 0.000000
vn 0.000000 -1.000000 0.000000
s off
g SciFi_PropsPack4_Pallet2_BS
f 3/1/1 4/2/2 6/3/3 5/4/4
f 2/5/5 8/6/6 6/3/7 4/2/8
f 7/7/9 1/8/10 3/1/11 5/4/12
f 11/9/13 12/10/14 14/11/15 13/12/16
f 10/13/17 16/14/18 14/11/19 12/10/20
f 15/15/21 9/16/22 11/9/23 13/12/24
f 19/17/25 20/18/26 22/19/27 21/20/28
f 18/21/29 24/22/30 22/19/31 20/18/32
f 23/23/33 17/24/34 19/17/35 21/20/36
f 28/25/37 58/26/38 59/27/39 32/28/40
f 62/29/41 63/30/42 34/31/43 37/32/44
f 31/33/45 60/34/46 61/35/47 38/36/48
f 33/37/49 64/38/50 57/39/51 27/40/52
f 49/41/53 55/42/54 56/43/55 50/44/56
f 30/45/57 40/46/58 39/47/59 29/48/60
f 57/39/61 58/49/62 28/50/63 27/40/64
f 59/51/65 60/34/66 31/33/67 32/52/68
f 33/37/69 34/53/70 63/54/71 64/38/72
f 37/55/73 38/36/74 61/35/75 62/56/76
f 27/57/77 28/58/78 41/59/79 42/60/80
f 28/58/81 32/61/82 43/62/83 41/59/84
f 32/61/85 31/63/86 44/64/87 43/62/88
f 31/63/89 38/65/90 45/66/91 44/64/92
f 38/65/93 37/67/94 46/68/95 45/66/96
f 37/67/97 34/69/98 47/70/99 46/68/100
f 34/69/101 33/71/102 48/72/103 47/70/104
f 33/71/105 27/57/106 42/60/107 48/72/108
f 42/73/109 41/74/110 49/75/111 50/44/112
f 41/76/113 43/77/114 51/78/115 49/41/116
f 43/79/117 44/80/118 52/81/119 51/82/120
f 44/80/121 45/83/122 53/84/123 52/81/124
f 45/83/125 46/85/126 54/86/127 53/84/128
f 46/87/129 47/88/130 55/42/131 54/89/132
f 47/90/133 48/91/134 56/43/135 55/92/136
f 48/91/137 42/73/138 50/44/139 56/43/140
f 54/89/141 55/42/142 49/41/143 51/78/144
f 54/89/145 51/78/146 52/81/147 53/84/148
f 73/93/149 74/94/150 75/95/151 76/96/152
f 77/97/153 75/98/154 74/99/155 78/100/156
f 78/100/157 79/101/158 80/102/159 77/97/160
f 81/103/161 80/102/162 79/101/163 82/104/164
f 83/105/165 81/103/166 82/104/167 84/106/168
f 84/107/169 85/108/170 86/109/171 83/110/172
f 87/111/173 86/109/174 85/108/175 88/112/176
f 76/96/177 87/111/178 88/112/179 73/93/180
f 25/113/181 26/114/182 66/115/183 65/116/184
f 67/117/185 66/118/186 26/119/187 30/45/188
f 30/120/189 29/48/190 68/121/191 67/122/192
f 69/123/193 68/121/194 29/48/195 39/47/196
f 70/124/197 69/123/198 39/47/199 40/125/200
f 36/126/201 71/127/202 70/128/203 40/46/204
f 72/129/205 71/130/206 36/131/207 35/132/208
f 65/116/209 72/129/210 35/132/211 25/113/212
f 65/116/213 66/133/214 74/134/215 73/135/216
f 58/26/217 57/39/218 76/136/219 75/137/220
f 59/27/221 58/26/222 75/137/223 77/138/224
f 66/133/225 67/139/226 78/140/227 74/134/228
f 67/139/229 68/141/230 79/142/231 78/140/232
f 60/34/233 59/27/234 77/138/235 80/143/236
f 61/35/237 60/34/238 80/143/239 81/144/240
f 68/141/241 69/145/242 82/146/243 79/142/244
f 62/29/245 61/35/246 81/144/247 83/147/248
f 69/145/249 70/148/250 84/149/251 82/146/252
f 70/148/253 71/150/254 85/151/255 84/149/256
f 63/30/257 62/29/258 83/147/259 86/152/260
f 64/38/261 63/30/262 86/152/263 87/153/264
f 71/150/265 72/129/266 88/154/267 85/151/268
f 57/39/269 64/38/270 87/153/271 76/136/272
f 72/129/273 65/116/274 73/135/275 88/154/276
f 35/132/277 36/126/278 26/119/279 25/113/280
f 26/119/281 36/126/282 40/46/283 30/45/284
